<svg width="44" height="44" viewBox="0 0 44 44" fill="none" xmlns="http://www.w3.org/2000/svg">
<path d="M27.6667 19.2793H25V24.1326H27.6667V19.2793Z" fill="black"/>
<path d="M19.6667 19.2793H17V24.1326H19.6667V19.2793Z" fill="black"/>
<path d="M34.88 13.56C34.36 13.04 33.7333 12.7733 33 12.7733H23.6667V8H17V10.6667H21V12.7867H11.6667C10.9333 12.7867 10.3067 13.0533 9.78667 13.5733C9.26667 14.0933 9 14.72 9 15.4533V27.9867C9 28.7333 9.26667 29.36 9.78667 29.88C10.3067 30.4 10.9333 30.6667 11.6667 30.6667H14.5733V36L19.9067 30.6667H33C33.7333 30.6667 34.36 30.4 34.88 29.88C35.4 29.36 35.6667 28.7333 35.6667 28V15.4267C35.6667 14.6933 35.4 14.0667 34.88 13.5467V13.56ZM33 27.9867H18.7733L17.24 29.48V27.9867H11.6667V15.4267H32.9867V27.9733L33 27.9867Z" fill="black"/>
</svg>
