<?xml version="1.0" standalone="no"?>
<!DOCTYPE svg PUBLIC "-//W3C//DTD SVG 20010904//EN"
 "http://www.w3.org/TR/2001/REC-SVG-20010904/DTD/svg10.dtd">
<svg version="1.0" xmlns="http://www.w3.org/2000/svg"
 width="1024.000000pt" height="1024.000000pt" viewBox="0 0 1024.000000 1024.000000"
 preserveAspectRatio="xMidYMid meet">
<metadata>
Created by potrace 1.14, written by Peter Selinger 2001-2017
</metadata>
<g transform="translate(0.000000,1024.000000) scale(0.100000,-0.100000)"
fill="#000000" stroke="none">
<path d="M4122 10218 c-1 -16 -9 -74 -16 -125 -3 -21 -8 -63 -12 -93 -7 -63
-10 -87 -18 -150 -6 -47 -12 -94 -21 -170 -3 -25 -7 -61 -10 -80 -2 -19 -7
-55 -10 -80 -3 -25 -7 -61 -10 -80 -2 -19 -7 -60 -10 -90 -3 -30 -8 -71 -11
-90 -3 -19 -7 -51 -9 -70 -3 -19 -7 -55 -10 -80 -3 -25 -8 -67 -11 -95 -3 -27
-7 -61 -9 -75 -4 -23 -20 -152 -31 -240 -2 -19 -6 -55 -9 -80 -3 -25 -7 -60
-10 -77 -2 -18 -6 -54 -10 -80 -3 -27 -8 -68 -11 -93 -2 -25 -6 -58 -9 -75 -2
-16 -7 -52 -10 -80 -3 -27 -8 -68 -12 -90 -3 -22 -7 -56 -9 -75 -2 -19 -6 -55
-9 -78 -3 -24 -2 -42 2 -39 4 3 69 30 143 61 74 31 147 64 163 72 15 8 27 12
27 8 0 -3 11 1 25 10 14 9 25 13 25 9 0 -5 4 -3 8 2 4 6 34 21 67 34 33 13 74
30 90 37 114 51 171 72 176 66 15 -16 91 -255 103 -327 3 -16 8 -39 10 -50 5
-25 19 -121 22 -155 10 -88 3 -364 -9 -425 -3 -11 -8 -44 -12 -72 -4 -29 -18
-92 -31 -140 -13 -48 -24 -91 -24 -94 0 -3 26 -18 58 -33 31 -15 97 -48 145
-72 48 -24 94 -44 102 -44 7 0 15 -4 17 -8 2 -4 39 -27 83 -51 142 -77 406
-245 413 -262 2 -5 9 -9 16 -9 6 0 23 -11 36 -24 l25 -23 55 30 c30 16 61 34
68 40 6 5 12 6 12 1 0 -5 4 -4 8 2 8 13 153 84 170 84 7 0 12 4 12 10 0 5 3 9
8 8 4 -1 20 4 35 10 30 13 115 47 157 64 76 30 320 104 375 114 16 3 46 9 65
14 19 5 53 11 74 15 21 3 48 7 60 10 24 5 65 11 146 20 30 4 66 9 80 11 14 2
88 6 165 10 l140 5 0 -365 c0 -415 -8 -386 83 -324 24 16 49 30 55 31 7 1 14
5 17 8 3 3 75 46 160 95 85 48 157 92 158 96 2 4 12 8 22 8 10 0 20 4 22 8 2
5 28 22 58 39 30 17 71 40 90 51 19 11 76 43 125 72 50 29 106 61 125 72 19
11 76 44 127 74 51 30 97 54 102 54 6 0 11 4 11 10 0 5 11 12 25 16 14 3 25
10 25 14 0 4 8 10 18 13 16 6 75 38 152 85 19 12 42 25 50 29 8 4 73 41 145
83 71 42 139 82 150 88 11 6 71 40 133 76 62 37 115 66 118 66 8 0 37 30 33
34 -6 4 -296 171 -360 208 -13 7 -27 18 -31 23 -4 6 -8 6 -8 2 0 -5 -12 0 -27
11 -16 11 -62 38 -103 62 -96 55 -105 60 -295 170 -88 51 -185 106 -215 123
-30 17 -56 34 -58 39 -2 4 -12 8 -23 8 -10 0 -19 3 -19 8 0 4 -17 16 -37 27
-21 11 -82 45 -136 77 -55 32 -101 58 -104 58 -3 0 -17 8 -31 19 -15 10 -47
29 -72 43 -63 35 -106 60 -168 97 -29 17 -57 31 -62 31 -6 0 -10 5 -10 10 0 6
-5 10 -11 10 -5 0 -52 25 -104 55 -51 30 -98 55 -104 55 -6 0 -11 5 -11 12 0
6 -3 8 -7 4 -5 -4 -8 -202 -8 -439 l0 -432 -58 0 c-31 0 -57 -3 -57 -7 0 -4
-13 -3 -30 2 -16 5 -30 6 -30 2 0 -4 -21 -7 -48 -8 -77 -1 -252 -17 -322 -30
-14 -2 -41 -7 -60 -10 -31 -4 -66 -11 -160 -28 -14 -3 -36 -7 -50 -10 -42 -10
-95 -19 -100 -19 -3 1 -12 -3 -21 -8 -9 -4 -27 -10 -40 -12 -40 -8 -109 -28
-204 -59 -49 -16 -97 -31 -105 -33 -26 -6 -235 -89 -240 -95 -3 -3 -10 -6 -17
-7 -6 -2 -51 -22 -100 -45 -48 -24 -92 -45 -96 -47 -5 -2 -5 43 -1 100 10 136
10 352 0 459 -8 83 -10 104 -20 165 -2 17 -7 48 -11 70 -7 42 -32 150 -58 245
-9 30 -34 106 -56 169 -22 62 -39 117 -36 121 2 4 19 13 37 20 120 48 275 114
286 122 6 6 12 8 12 5 0 -3 27 8 60 24 33 16 64 29 69 29 4 0 21 6 37 14 38
19 105 48 177 76 31 13 57 27 57 31 0 4 -55 49 -122 100 -68 51 -124 96 -126
101 -2 4 -8 8 -13 8 -8 0 -87 59 -188 138 -18 15 -40 31 -49 36 -8 5 -22 15
-31 22 -9 8 -52 41 -96 73 -44 33 -84 64 -90 69 -8 6 -134 100 -180 134 -5 4
-23 18 -40 31 -16 13 -122 93 -235 177 -113 85 -209 158 -215 163 -5 4 -64 49
-130 98 -66 49 -127 95 -135 102 -9 7 -37 28 -63 47 -26 19 -62 47 -80 62 -35
30 -53 35 -55 16z m454 -912 c28 -23 63 -50 78 -61 74 -53 161 -121 164 -127
2 -5 8 -8 13 -8 6 0 19 -9 31 -20 12 -11 39 -32 62 -47 22 -16 51 -38 64 -50
14 -13 29 -23 34 -23 5 0 8 -5 6 -11 -2 -5 -60 -34 -128 -63 -69 -29 -134 -56
-145 -61 -11 -4 -22 -9 -25 -10 -3 0 -27 -11 -54 -23 -27 -12 -51 -22 -54 -22
-2 0 -23 -9 -46 -19 -53 -25 -158 -71 -161 -71 -2 0 -2 15 1 33 5 40 12 97 19
162 3 28 8 61 10 75 2 14 7 50 10 80 3 30 8 66 10 80 7 42 18 144 18 168 1 12
4 22 8 22 3 0 4 11 1 25 -4 21 -1 24 14 18 11 -3 42 -25 70 -47z m3129 -1691
c30 -20 63 -39 73 -42 15 -6 77 -42 137 -81 11 -6 27 -15 35 -19 8 -4 31 -16
50 -28 36 -23 107 -63 173 -98 40 -22 43 -36 11 -52 -77 -41 -210 -119 -212
-126 -2 -5 -12 -9 -22 -9 -9 0 -23 -7 -30 -15 -7 -8 -16 -15 -21 -15 -4 0 -59
-31 -122 -68 -63 -38 -122 -72 -131 -75 -15 -6 -16 23 -16 328 0 212 4 335 10
335 5 0 34 -16 65 -35z"/>
<path d="M2646 8033 c-4 -4 -12 -8 -19 -9 -7 -2 -37 -12 -67 -24 -30 -12 -62
-23 -70 -25 -8 -2 -67 -22 -130 -45 -63 -23 -119 -43 -125 -44 -5 -1 -14 -4
-20 -7 -8 -5 -136 -50 -155 -54 -3 -1 -18 -7 -33 -13 -16 -7 -34 -12 -42 -12
-8 0 -17 -4 -20 -10 -3 -5 -12 -10 -20 -10 -8 0 -26 -5 -42 -12 -15 -6 -32
-12 -38 -14 -20 -5 -361 -125 -385 -135 -14 -6 -83 -31 -155 -56 -71 -24 -137
-47 -145 -50 -8 -4 -18 -7 -22 -8 -5 -2 -10 -4 -13 -5 -3 -1 -9 -3 -14 -4 -5
0 -13 -4 -17 -8 -4 -5 -14 -8 -22 -8 -8 0 -28 -6 -45 -14 -18 -8 -68 -26 -112
-41 -44 -14 -89 -30 -100 -35 -11 -5 -74 -27 -140 -50 -66 -23 -133 -47 -150
-53 -16 -6 -34 -12 -40 -12 -26 0 -3 -29 75 -96 47 -41 87 -77 88 -81 2 -5 8
-8 12 -8 5 0 22 -12 38 -27 16 -16 48 -44 73 -65 88 -72 124 -103 147 -125 12
-13 25 -23 27 -23 2 0 15 -10 28 -22 13 -13 32 -30 43 -38 10 -9 53 -45 94
-80 41 -36 88 -76 105 -90 16 -14 42 -37 57 -52 15 -14 28 -24 28 -22 0 4 48
-37 89 -76 9 -8 38 -33 65 -55 28 -22 59 -49 71 -60 23 -22 109 -96 165 -141
19 -16 40 -33 46 -39 6 -5 35 -30 64 -55 29 -25 62 -53 74 -63 11 -10 43 -37
71 -60 27 -23 81 -69 120 -103 38 -33 83 -71 99 -85 16 -13 34 -30 42 -36 7
-7 15 -13 17 -13 7 0 23 71 32 139 2 18 7 41 9 50 3 9 7 32 10 51 3 19 8 46
11 60 2 14 7 36 10 50 2 14 7 41 10 60 3 19 8 44 12 54 3 11 7 34 9 50 2 17 6
42 9 56 3 14 8 39 11 55 2 17 6 39 8 50 3 11 8 41 12 68 7 53 9 53 95 36 30
-6 65 -12 79 -14 14 -2 50 -9 80 -15 66 -14 84 -17 130 -24 19 -3 46 -8 60
-11 14 -3 50 -9 80 -15 64 -11 97 -17 126 -24 12 -2 37 -7 55 -10 65 -11 89
-16 114 -26 14 -5 29 -9 33 -8 4 1 18 -2 32 -5 14 -4 36 -9 50 -11 94 -15 529
-139 615 -175 11 -5 45 -18 75 -29 30 -12 69 -27 85 -33 17 -7 32 -13 35 -14
70 -23 338 -155 470 -230 137 -78 404 -262 466 -320 6 -5 40 -35 75 -65 74
-63 259 -249 306 -306 17 -21 45 -54 60 -73 l29 -34 36 34 c143 138 316 264
476 350 34 18 62 36 62 39 0 3 -9 16 -20 28 -11 12 -20 23 -20 26 0 3 -10 16
-22 29 -13 13 -45 50 -73 82 -48 57 -253 263 -311 316 -33 29 -196 163 -240
196 -67 51 -84 64 -189 134 -133 90 -260 169 -271 169 -4 0 -15 6 -23 14 -38
33 -332 176 -591 288 -14 6 -33 14 -42 19 -10 5 -26 9 -36 9 -10 0 -22 4 -27
9 -9 7 -172 69 -200 75 -5 1 -44 13 -85 26 -41 13 -79 25 -85 26 -5 2 -41 12
-80 24 -38 11 -79 22 -90 24 -11 2 -27 6 -35 9 -8 3 -35 10 -60 16 -115 27
-177 41 -195 44 -11 2 -30 8 -41 15 -12 6 -23 9 -26 7 -2 -2 -20 0 -39 5 -19
5 -50 11 -69 14 -19 3 -60 10 -90 17 -30 6 -66 12 -80 14 -14 2 -61 10 -105
19 -114 22 -136 26 -170 31 -16 3 -37 6 -45 8 -8 2 -61 12 -118 22 l-103 19 5
36 c8 50 15 91 22 120 3 14 8 41 11 60 10 69 11 75 13 75 1 0 3 9 5 20 15 87
33 185 43 230 3 17 6 42 6 58 1 15 3 27 6 27 3 0 7 10 8 23 2 24 10 62 12 62
1 0 3 14 6 32 4 31 -6 49 -20 36z m-590 -731 c-3 -5 -7 -22 -10 -38 -3 -16
-10 -54 -16 -84 -6 -30 -13 -68 -15 -84 -3 -15 -7 -38 -11 -49 -4 -12 -8 -38
-9 -58 -1 -20 -5 -41 -8 -45 -3 -5 -8 -28 -11 -50 -4 -22 -9 -51 -12 -64 -2
-14 -7 -45 -11 -70 -3 -25 -9 -52 -13 -60 -4 -8 -6 -23 -5 -33 2 -11 -1 -15
-8 -10 -12 7 -107 85 -137 113 -21 18 -111 96 -165 142 -49 40 -82 69 -168
143 -21 18 -35 35 -30 38 13 8 295 109 313 112 3 0 15 6 28 13 12 7 22 11 22
9 0 -3 53 15 118 39 114 42 158 52 148 36z"/>
<path d="M3917 5880 c-61 -89 -177 -280 -177 -291 0 -5 -5 -9 -12 -9 -6 0 -9
-3 -5 -6 3 -3 -4 -23 -17 -43 -38 -62 -132 -261 -180 -387 -26 -65 -51 -128
-56 -139 -8 -18 -52 -150 -56 -167 -1 -5 -2 -9 -4 -10 -1 -2 -3 -10 -5 -18 -2
-8 -16 -58 -30 -110 -14 -52 -27 -104 -29 -115 -2 -11 -7 -27 -10 -35 -3 -8
-7 -28 -10 -45 -3 -16 -7 -42 -10 -58 -10 -46 -27 -147 -32 -180 -2 -18 -7
-50 -10 -72 -3 -22 -7 -59 -10 -82 -2 -24 -6 -64 -9 -90 -4 -40 -17 -340 -16
-380 0 -14 0 -94 0 -115 0 -7 2 -25 4 -41 2 -15 1 -30 -4 -33 -4 -2 -6 -11 -3
-18 8 -22 10 -97 2 -102 -4 -3 -4 -15 0 -27 9 -28 9 -78 -1 -94 -4 -6 -3 -14
2 -18 7 -3 7 -15 1 -30 -5 -13 -6 -26 -2 -29 9 -5 9 -73 0 -82 -4 -3 -4 -12
-2 -18 9 -23 10 -97 2 -102 -5 -3 -6 -10 -3 -15 9 -13 13 -89 6 -89 -3 0 -6
-30 -7 -68 0 -37 -4 -87 -8 -112 -4 -25 -9 -54 -10 -65 -18 -136 -79 -321
-160 -480 -42 -84 -136 -238 -156 -255 -3 -3 -19 -23 -35 -45 -30 -41 -171
-185 -235 -241 -146 -126 -482 -304 -625 -330 -13 -2 -37 -9 -52 -15 -16 -6
-29 -10 -31 -9 -1 1 -15 -1 -30 -4 -47 -11 -66 -14 -127 -22 -87 -11 -104 -12
-168 -13 l-57 -1 2 -357 3 -358 35 1 c66 1 235 14 260 19 14 3 44 7 68 10 24
3 62 9 85 15 23 5 53 11 67 14 114 23 286 75 355 106 21 10 76 32 85 35 9 2
215 106 235 118 28 17 214 139 240 157 23 16 81 63 148 120 62 52 185 177 247
250 30 35 60 70 65 76 6 6 17 22 25 34 8 12 20 28 25 34 44 48 176 269 237
396 65 137 150 377 172 490 3 14 8 36 11 50 3 14 8 39 10 55 1 17 6 48 9 70
25 154 28 229 31 840 2 325 5 601 8 615 3 14 8 55 12 92 3 37 8 77 10 90 2 13
11 66 20 118 9 52 20 109 25 125 5 17 11 41 14 55 2 14 12 51 21 84 9 32 19
66 20 75 2 9 4 17 5 19 2 1 3 5 5 10 1 4 4 14 8 22 3 8 11 33 17 55 23 76 108
280 162 390 84 169 177 324 292 482 l37 52 -43 27 c-24 14 -54 33 -68 42 -83
53 -500 252 -526 252 -5 0 -31 -32 -57 -70z"/>
<path d="M1084 5758 c-4 -13 -9 -27 -10 -33 -2 -5 -13 -46 -25 -90 -11 -44
-23 -87 -24 -95 -4 -14 -23 -86 -96 -355 -17 -60 -32 -117 -34 -125 -8 -32
-46 -172 -90 -340 -26 -96 -48 -179 -49 -185 -1 -5 -5 -15 -9 -22 -4 -6 -9
-24 -12 -40 -4 -32 -13 -68 -15 -68 -1 0 -3 -7 -5 -15 -2 -8 -20 -76 -40 -150
-20 -74 -37 -142 -39 -150 -5 -19 -70 -261 -100 -368 -8 -29 -15 -56 -15 -60
-1 -4 -6 -25 -12 -47 -20 -72 -20 -77 1 -70 10 3 27 7 37 10 10 2 52 13 93 25
41 12 85 23 97 26 12 2 33 8 45 13 13 5 26 9 31 10 17 2 70 16 205 52 79 22
151 41 160 42 9 2 42 11 72 20 30 9 66 19 80 21 14 3 50 12 80 21 30 9 62 18
70 19 9 1 21 5 28 10 6 4 17 4 22 1 6 -3 10 -2 10 3 0 5 6 9 13 9 19 1 97 21
295 76 28 9 52 13 52 11 0 -3 8 0 18 5 11 6 30 12 43 15 13 2 58 14 99 26 41
11 84 23 95 26 11 3 25 6 30 8 6 2 24 6 40 10 17 5 59 16 95 27 36 10 76 20
90 23 14 3 55 13 92 24 37 11 70 17 73 14 3 -3 5 -1 5 4 0 5 8 10 18 11 24 2
103 22 118 31 10 5 -3 24 -44 65 -31 31 -84 84 -117 117 -33 34 -89 89 -124
123 -35 34 -71 70 -80 80 -9 10 -46 48 -83 84 -37 36 -65 70 -62 74 4 7 129
69 139 69 2 0 16 5 32 11 15 6 28 10 28 9 0 -1 14 4 30 11 17 6 39 13 50 15
11 2 40 8 65 15 46 11 61 14 165 25 92 10 270 5 345 -10 8 -1 32 -6 53 -11 43
-8 55 -1 62 36 3 14 14 52 25 84 11 33 22 68 25 77 8 37 58 167 96 255 11 24
19 45 19 47 0 3 16 39 35 80 19 42 35 78 35 80 0 3 -35 12 -77 21 -43 9 -92
21 -109 26 -16 5 -53 11 -82 14 -29 3 -76 8 -104 11 -178 18 -416 8 -588 -27
-30 -6 -62 -13 -70 -14 -8 -2 -17 -4 -20 -5 -3 -1 -9 -3 -15 -4 -38 -6 -82
-20 -94 -30 -8 -6 -15 -9 -15 -7 -1 2 -46 -9 -96 -24 -5 -2 -18 -7 -118 -49
-79 -33 -197 -96 -276 -146 -42 -27 -65 -36 -76 -30 -8 5 -141 135 -294 289
-154 155 -280 281 -282 281 -1 0 -6 -10 -10 -22z m494 -1131 c127 -129 232
-237 232 -240 0 -4 -8 -7 -18 -7 -10 0 -22 -3 -26 -7 -3 -4 -17 -8 -29 -10
-25 -3 -89 -21 -130 -36 -15 -5 -30 -7 -34 -3 -3 3 -11 2 -17 -3 -6 -5 -36
-14 -66 -22 -30 -7 -57 -14 -60 -14 -3 -1 -12 -5 -20 -8 -13 -5 -172 -48 -233
-62 -14 -3 -16 1 -11 23 4 15 11 35 16 45 5 9 7 17 4 17 -2 0 4 27 14 60 10
33 16 60 14 60 -2 0 1 12 7 28 6 15 12 34 14 42 2 8 18 69 35 135 18 66 34
127 35 135 2 8 4 16 5 18 3 3 6 13 15 50 4 17 10 32 14 32 3 0 111 -105 239
-233z"/>
<path d="M8638 5488 l-287 -289 -108 64 c-113 67 -213 119 -213 112 0 -3 -15
4 -32 14 -18 10 -71 30 -118 46 -47 15 -90 32 -96 36 -6 5 -14 6 -17 2 -4 -3
-13 0 -22 7 -8 7 -15 10 -15 7 0 -3 -15 -1 -32 4 -35 10 -112 27 -163 35 -16
3 -41 7 -55 9 -136 24 -470 24 -576 1 -12 -2 -43 -7 -70 -10 -27 -4 -83 -16
-124 -26 -41 -11 -85 -22 -97 -25 -44 -10 -200 -68 -278 -103 -311 -141 -570
-347 -798 -637 -60 -76 -177 -264 -177 -284 0 -6 -4 -11 -10 -11 -5 0 -10 -9
-10 -20 0 -11 -4 -20 -10 -20 -5 0 -10 -5 -10 -11 0 -5 -12 -36 -26 -67 -15
-31 -27 -61 -29 -67 -1 -5 -7 -23 -14 -40 -16 -39 -60 -172 -66 -199 -10 -51
-15 -69 -21 -88 -3 -11 -7 -30 -9 -41 -2 -21 -13 -91 -21 -132 -13 -70 -17
-293 -17 -930 0 -649 4 -835 18 -945 9 -67 16 -125 20 -155 3 -31 10 -70 20
-115 3 -14 8 -41 11 -60 3 -19 10 -53 16 -75 5 -22 11 -44 13 -50 26 -114 111
-370 161 -483 45 -103 138 -289 153 -306 9 -10 15 -21 15 -25 -7 -27 270 -427
347 -503 15 -14 26 -28 25 -30 -2 -2 13 -20 33 -40 l36 -37 45 41 c25 22 92
85 150 138 58 53 119 109 135 125 17 15 67 61 112 102 l81 75 -21 25 c-12 15
-34 39 -49 55 -16 16 -28 31 -28 33 0 4 -19 29 -45 59 -45 51 -137 189 -203
304 -32 56 -124 240 -128 255 -1 4 -3 9 -4 12 -1 3 -3 8 -5 13 -1 4 -7 21 -14
37 -26 62 -71 186 -69 193 1 4 -2 14 -5 22 -8 18 -36 125 -43 160 -2 14 -7 32
-10 40 -7 19 -18 88 -18 118 -1 12 -4 22 -7 22 -4 0 -7 10 -7 23 0 12 -3 54
-6 92 -15 142 -15 194 -15 900 0 672 1 772 13 850 12 74 50 217 73 275 3 8 5
18 5 23 -1 4 3 7 10 7 6 0 9 3 5 6 -7 7 90 197 115 224 10 11 18 23 18 27 0
14 100 131 176 207 76 77 195 161 319 227 95 50 270 113 345 124 24 4 47 8 50
10 15 10 277 25 293 17 4 -2 36 -5 70 -7 71 -4 143 -18 232 -43 22 -6 43 -11
48 -12 4 0 21 -7 37 -15 16 -8 32 -15 35 -15 3 1 27 -9 53 -21 26 -12 49 -23
52 -23 3 -1 15 -7 28 -14 22 -13 14 -22 -243 -279 -146 -146 -265 -269 -265
-272 0 -4 8 -8 18 -9 21 -2 42 -7 62 -15 8 -3 38 -10 65 -17 28 -7 70 -18 95
-26 25 -7 56 -15 70 -18 27 -5 135 -35 160 -43 8 -3 22 -7 30 -8 19 -4 32 -7
150 -40 52 -15 104 -28 115 -30 11 -2 21 -4 23 -5 1 -2 5 -3 10 -5 4 -1 19 -5
33 -9 14 -4 34 -9 45 -11 10 -2 19 -4 19 -5 0 -1 13 -4 30 -6 16 -3 35 -10 42
-16 7 -6 13 -8 13 -5 0 3 15 1 33 -4 17 -6 39 -12 47 -14 8 -2 42 -12 75 -21
33 -9 67 -17 75 -19 8 -2 58 -15 110 -30 52 -14 102 -28 110 -29 8 -2 35 -9
60 -16 25 -7 52 -14 60 -16 23 -5 230 -62 350 -95 19 -5 44 -11 55 -13 11 -2
63 -16 115 -31 52 -15 103 -29 113 -31 10 -2 27 -6 37 -9 21 -7 19 1 -41 217
-17 60 -32 116 -34 125 -1 10 -9 38 -16 63 -7 25 -14 52 -15 60 -2 8 -7 31
-13 50 -21 70 -53 183 -56 199 -8 41 -17 78 -25 101 -8 24 -76 276 -85 315 -2
11 -12 47 -21 80 -9 33 -17 67 -19 75 -2 8 -15 55 -29 104 -14 48 -28 99 -30
113 -3 13 -12 50 -21 81 -10 31 -19 64 -21 72 -2 8 -11 42 -20 75 -9 33 -18
68 -20 78 -7 32 -13 52 -47 177 -19 69 -38 139 -42 155 -5 17 -10 37 -12 45
-3 8 -5 23 -6 33 -1 9 -6 16 -12 16 -5 -1 -139 -132 -297 -291z m63 -660 c16
-55 15 -52 34 -128 9 -36 19 -72 22 -80 3 -8 7 -22 9 -30 1 -8 7 -31 13 -50
24 -80 50 -177 55 -200 2 -14 9 -37 15 -52 6 -16 8 -28 6 -28 -2 0 0 -11 5
-25 11 -28 10 -28 -23 -16 -13 5 -37 12 -53 15 -16 3 -86 21 -155 40 -69 19
-137 37 -150 40 -13 2 -37 9 -54 16 -16 6 -32 11 -35 11 -3 0 -14 2 -26 5 -11
3 -27 7 -35 8 -8 2 -21 6 -29 9 -8 3 -31 10 -51 16 l-35 11 235 239 c130 131
237 239 238 240 1 0 8 -18 14 -41z"/>
<path d="M4412 4758 c-11 -25 -23 -60 -27 -77 -4 -17 -10 -31 -14 -31 -4 0 -8
-6 -8 -12 0 -7 -10 -43 -23 -81 -12 -37 -23 -73 -24 -80 -1 -6 -5 -18 -9 -24
-5 -7 -5 -17 -2 -23 3 -5 1 -10 -6 -10 -7 0 -10 -3 -7 -6 4 -3 2 -20 -3 -37
-6 -18 -12 -43 -15 -57 -3 -14 -14 -65 -24 -115 -10 -49 -22 -110 -25 -135 -4
-25 -9 -58 -11 -75 -5 -30 -13 -114 -19 -210 -8 -119 -3 -295 8 -295 5 0 5 -5
1 -11 -10 -16 -11 -220 -1 -226 4 -2 4 -9 1 -15 -10 -15 -11 -139 -1 -145 4
-2 4 -9 1 -15 -10 -16 -11 -219 -1 -225 4 -2 4 -9 1 -15 -10 -15 -11 -219 -1
-225 4 -2 4 -12 -1 -21 -6 -14 -8 -187 -2 -217 1 -5 1 -14 0 -20 -1 -5 -4 -91
-5 -190 -2 -99 -7 -191 -10 -205 -3 -14 -7 -51 -10 -82 -6 -63 -38 -228 -59
-297 -7 -25 -14 -49 -14 -54 -2 -16 -55 -182 -62 -192 -3 -5 -17 -39 -29 -74
-20 -56 -130 -281 -164 -336 -61 -98 -129 -199 -171 -254 -63 -83 -58 -76
-111 -136 l-45 -50 74 -70 c40 -38 100 -94 132 -124 32 -29 100 -90 149 -136
50 -46 108 -99 129 -119 l40 -36 25 28 c37 40 119 139 148 177 20 26 90 123
105 145 10 14 31 44 48 68 16 23 30 46 30 49 0 4 6 14 14 22 8 9 24 34 36 56
13 22 34 60 48 85 14 25 33 60 43 78 10 17 15 32 11 32 -4 0 -2 4 3 8 11 8 65
121 115 242 43 102 121 338 135 410 2 8 4 15 5 15 1 0 3 7 5 15 60 286 68 331
79 471 1 19 5 40 9 45 7 12 2 1735 -5 1784 -3 19 -9 55 -13 80 -4 25 -9 54
-11 65 -1 11 -3 20 -4 20 -1 0 -4 14 -6 30 -3 17 -11 53 -20 80 -8 28 -16 57
-18 65 -2 8 -6 22 -9 30 -3 8 -12 35 -21 60 -65 200 -201 447 -339 614 l-24
30 -21 -46z"/>
<path d="M6595 4429 c-137 -103 -246 -212 -324 -324 -19 -28 -40 -53 -45 -57
-6 -4 -7 -8 -2 -8 5 0 2 -8 -6 -17 -31 -35 -99 -184 -134 -290 l-35 -107 1
-467 c1 -257 4 -469 6 -472 3 -3 7 -36 9 -73 3 -38 7 -80 10 -94 3 -14 9 -50
15 -80 20 -106 28 -145 30 -145 1 0 4 -11 6 -25 9 -48 57 -194 99 -299 62
-154 146 -312 247 -465 68 -103 214 -272 322 -375 32 -31 69 -66 82 -79 13
-12 25 -22 28 -22 3 0 19 -12 35 -27 74 -68 273 -201 387 -258 43 -22 81 -43
82 -47 2 -5 8 -8 13 -8 4 0 33 -11 63 -25 98 -45 336 -129 336 -119 0 3 9 0
21 -6 21 -12 29 -14 90 -24 19 -3 45 -8 59 -11 109 -24 146 -29 300 -41 161
-12 168 -11 172 11 5 29 3 684 -3 689 -2 2 -49 6 -104 10 -96 6 -140 11 -195
22 -14 3 -34 7 -45 9 -11 1 -47 10 -80 19 -33 9 -67 18 -75 20 -40 10 -144 52
-230 93 -83 40 -246 136 -260 153 -3 4 -12 11 -21 16 -77 44 -278 248 -359
364 -13 19 -30 41 -37 48 -6 6 -15 21 -18 32 -3 11 -11 20 -16 20 -6 0 -7 5
-4 10 3 6 2 10 -2 10 -10 0 -102 180 -128 250 -9 25 -21 54 -27 65 -5 12 -10
27 -12 35 -2 8 -6 22 -9 30 -6 13 -24 84 -42 164 -2 10 -7 44 -11 75 -3 31 -9
61 -12 66 -4 6 -7 246 -8 535 -2 449 -6 624 -19 785 -2 29 -10 86 -22 150 -3
17 -6 41 -8 55 -1 14 -5 36 -9 48 -5 13 -9 34 -11 45 -7 58 -40 167 -49 166
-6 0 -29 -14 -51 -30z"/>
</g>
</svg>
